<svg id="Layer_1" data-name="Layer 1" xmlns="http://www.w3.org/2000/svg" viewBox="0 0 100 113.81">
  <defs>
    <style>
      .cls-1 {
        fill: #fff;
      }
    </style>
  </defs>
  <title>logo</title>
  <path class="cls-1" d="M100,51.59V93A7.23,7.23,0,0,1,99.5,96a4.69,4.69,0,0,1-1.35,2L80.67,112.48a4.46,4.46,0,0,1-1.62,1,7.86,7.86,0,0,1-2.51.41H34.34c-11.72,0-20.39-3-25.94-9.15S0,90.74,0,81.12V43.32A34.09,34.09,0,0,1,2.16,30.59a23.26,23.26,0,0,1,6.3-9L25.74,7A27.28,27.28,0,0,1,36.37,1.73,59.78,59.78,0,0,1,51.61,0H85.14a6.68,6.68,0,0,1,4.68,1.49,6.65,6.65,0,0,1,1.49,4.67V22.39a8.69,8.69,0,0,1-.48,2.91,5.55,5.55,0,0,1-1.42,2L72,41.83a5.49,5.49,0,0,1-1.69,1,7.26,7.26,0,0,1-2.51.41H50.39v19.3a1.94,1.94,0,0,1,.48-.61,2.51,2.51,0,0,1,.61-.61L68.75,46.64a7.44,7.44,0,0,1,1.83-.88,9.46,9.46,0,0,1,2.51-.34H93.81a6.75,6.75,0,0,1,4.75,1.49A6.72,6.72,0,0,1,100,51.59ZM98.69,93V51.59a5,5,0,0,0-1.15-3.66,5.3,5.3,0,0,0-3.73-1.15H73.09a5.09,5.09,0,0,0-3.73,1.15,5,5,0,0,0-1.15,3.66V72.52h-13a6,6,0,0,1-4.6-1.63c-1-1-1.56-2.71-1.56-4.94v-32a6.09,6.09,0,0,1,2-5c1.36-1.15,3.39-1.69,6.16-1.69H85.14c1.7,0,2.92-.34,3.66-1.15A5,5,0,0,0,90,22.39V6.13A5,5,0,0,0,88.8,2.48a5,5,0,0,0-3.66-1.16H51.61Q34.85,1.32,26.75,8c-5.42,4.47-8.13,11.38-8.13,20.66V70.48c0,9.35,2.71,16.19,8.13,20.66s13.69,6.71,24.86,6.71h42.2A4.16,4.16,0,0,0,98.69,93Z"/>
</svg>
